<svg width="20" height="15" viewBox="0 0 20 15" fill="none" xmlns="http://www.w3.org/2000/svg">
<rect width="19.4595" height="15" fill="white"/>
<rect y="13.8457" width="19.4595" height="1.15385" fill="#B22234"/>
<rect y="11.5381" width="19.4595" height="1.15385" fill="#B22234"/>
<rect y="9.23145" width="19.4595" height="1.15385" fill="#B22234"/>
<rect y="6.92285" width="19.4595" height="1.15385" fill="#B22234"/>
<rect y="4.61523" width="19.4595" height="1.15385" fill="#B22234"/>
<rect y="2.30762" width="19.4595" height="1.15385" fill="#B22234"/>
<rect width="19.4595" height="1.15385" fill="#B22234"/>
<rect width="9.72973" height="8.07692" fill="#3C3B6E"/>
<path fill-rule="evenodd" clip-rule="evenodd" d="M8.70438 7.07732L8.47863 7.27298L8.57404 6.97064L8.33911 6.78922L8.62383 6.79802L8.70438 6.49023L8.78493 6.79802L9.06965 6.78922L8.83472 6.97064L8.93013 7.27298L8.70438 7.07732Z" fill="white"/>
<path fill-rule="evenodd" clip-rule="evenodd" d="M7.16922 7.07732L6.94347 7.27298L7.03889 6.97064L6.80395 6.78922L7.08867 6.79802L7.16922 6.49023L7.24978 6.79802L7.5345 6.78922L7.29956 6.97064L7.39497 7.27298L7.16922 7.07732Z" fill="white"/>
<path fill-rule="evenodd" clip-rule="evenodd" d="M5.63407 7.07732L5.40832 7.27298L5.50373 6.97064L5.2688 6.78922L5.55351 6.79802L5.63407 6.49023L5.71462 6.79802L5.99934 6.78922L5.76441 6.97064L5.85982 7.27298L5.63407 7.07732Z" fill="white"/>
<path fill-rule="evenodd" clip-rule="evenodd" d="M4.09891 7.07732L3.87316 7.27298L3.96857 6.97064L3.73364 6.78922L4.01836 6.79802L4.09891 6.49023L4.17947 6.79802L4.46418 6.78922L4.22925 6.97064L4.32466 7.27298L4.09891 7.07732Z" fill="white"/>
<path fill-rule="evenodd" clip-rule="evenodd" d="M2.56376 7.07732L2.33801 7.27298L2.43342 6.97064L2.19849 6.78922L2.4832 6.79802L2.56376 6.49023L2.64431 6.79802L2.92903 6.78922L2.69409 6.97064L2.78951 7.27298L2.56376 7.07732Z" fill="white"/>
<path fill-rule="evenodd" clip-rule="evenodd" d="M1.02469 7.07732L0.798944 7.27298L0.894354 6.97064L0.659423 6.78922L0.944139 6.79802L1.02469 6.49023L1.10525 6.79802L1.38996 6.78922L1.15503 6.97064L1.25044 7.27298L1.02469 7.07732Z" fill="white"/>
<path fill-rule="evenodd" clip-rule="evenodd" d="M7.93485 6.35564L7.7091 6.5513L7.80451 6.24896L7.56958 6.06754L7.8543 6.07634L7.93485 5.76855L8.0154 6.07634L8.30012 6.06754L8.06519 6.24896L8.1606 6.5513L7.93485 6.35564Z" fill="white"/>
<path fill-rule="evenodd" clip-rule="evenodd" d="M6.39969 6.35564L6.17394 6.5513L6.26935 6.24896L6.03442 6.06754L6.31914 6.07634L6.39969 5.76855L6.48025 6.07634L6.76496 6.06754L6.53003 6.24896L6.62544 6.5513L6.39969 6.35564Z" fill="white"/>
<path fill-rule="evenodd" clip-rule="evenodd" d="M4.86454 6.35564L4.63879 6.5513L4.7342 6.24896L4.49927 6.06754L4.78398 6.07634L4.86454 5.76855L4.94509 6.07634L5.22981 6.06754L4.99488 6.24896L5.09029 6.5513L4.86454 6.35564Z" fill="white"/>
<path fill-rule="evenodd" clip-rule="evenodd" d="M3.32938 6.35564L3.10363 6.5513L3.19904 6.24896L2.96411 6.06754L3.24883 6.07634L3.32938 5.76855L3.40993 6.07634L3.69465 6.06754L3.45972 6.24896L3.55513 6.5513L3.32938 6.35564Z" fill="white"/>
<path fill-rule="evenodd" clip-rule="evenodd" d="M1.79032 6.35564L1.56457 6.5513L1.65998 6.24896L1.42505 6.06754L1.70976 6.07634L1.79032 5.76855L1.87087 6.07634L2.15559 6.06754L1.92066 6.24896L2.01607 6.5513L1.79032 6.35564Z" fill="white"/>
<path fill-rule="evenodd" clip-rule="evenodd" d="M8.70438 5.63494L8.47863 5.8306L8.57404 5.52826L8.33911 5.34683L8.62383 5.35563L8.70438 5.04785L8.78493 5.35563L9.06965 5.34683L8.83472 5.52826L8.93013 5.8306L8.70438 5.63494Z" fill="white"/>
<path fill-rule="evenodd" clip-rule="evenodd" d="M7.16922 5.63494L6.94347 5.8306L7.03889 5.52826L6.80395 5.34683L7.08867 5.35563L7.16922 5.04785L7.24978 5.35563L7.5345 5.34683L7.29956 5.52826L7.39497 5.8306L7.16922 5.63494Z" fill="white"/>
<path fill-rule="evenodd" clip-rule="evenodd" d="M5.63407 5.63494L5.40832 5.8306L5.50373 5.52826L5.2688 5.34683L5.55351 5.35563L5.63407 5.04785L5.71462 5.35563L5.99934 5.34683L5.76441 5.52826L5.85982 5.8306L5.63407 5.63494Z" fill="white"/>
<path fill-rule="evenodd" clip-rule="evenodd" d="M4.09891 5.63494L3.87316 5.8306L3.96857 5.52826L3.73364 5.34683L4.01836 5.35563L4.09891 5.04785L4.17947 5.35563L4.46418 5.34683L4.22925 5.52826L4.32466 5.8306L4.09891 5.63494Z" fill="white"/>
<path fill-rule="evenodd" clip-rule="evenodd" d="M2.56376 5.63494L2.33801 5.8306L2.43342 5.52826L2.19849 5.34683L2.4832 5.35563L2.56376 5.04785L2.64431 5.35563L2.92903 5.34683L2.69409 5.52826L2.78951 5.8306L2.56376 5.63494Z" fill="white"/>
<path fill-rule="evenodd" clip-rule="evenodd" d="M1.02469 5.63494L0.798944 5.8306L0.894354 5.52826L0.659423 5.34683L0.944139 5.35563L1.02469 5.04785L1.10525 5.35563L1.38996 5.34683L1.15503 5.52826L1.25044 5.8306L1.02469 5.63494Z" fill="white"/>
<path fill-rule="evenodd" clip-rule="evenodd" d="M7.93485 4.91424L7.7091 5.1099L7.80451 4.80755L7.56958 4.62613L7.8543 4.63493L7.93485 4.32715L8.0154 4.63493L8.30012 4.62613L8.06519 4.80755L8.1606 5.1099L7.93485 4.91424Z" fill="white"/>
<path fill-rule="evenodd" clip-rule="evenodd" d="M6.39969 4.91424L6.17394 5.1099L6.26935 4.80755L6.03442 4.62613L6.31914 4.63493L6.39969 4.32715L6.48025 4.63493L6.76496 4.62613L6.53003 4.80755L6.62544 5.1099L6.39969 4.91424Z" fill="white"/>
<path fill-rule="evenodd" clip-rule="evenodd" d="M4.86454 4.91424L4.63879 5.1099L4.7342 4.80755L4.49927 4.62613L4.78398 4.63493L4.86454 4.32715L4.94509 4.63493L5.22981 4.62613L4.99488 4.80755L5.09029 5.1099L4.86454 4.91424Z" fill="white"/>
<path fill-rule="evenodd" clip-rule="evenodd" d="M3.32938 4.91424L3.10363 5.1099L3.19904 4.80755L2.96411 4.62613L3.24883 4.63493L3.32938 4.32715L3.40993 4.63493L3.69465 4.62613L3.45972 4.80755L3.55513 5.1099L3.32938 4.91424Z" fill="white"/>
<path fill-rule="evenodd" clip-rule="evenodd" d="M1.79032 4.91424L1.56457 5.1099L1.65998 4.80755L1.42505 4.62613L1.70976 4.63493L1.79032 4.32715L1.87087 4.63493L2.15559 4.62613L1.92066 4.80755L2.01607 5.1099L1.79032 4.91424Z" fill="white"/>
<path fill-rule="evenodd" clip-rule="evenodd" d="M8.70438 4.19353L8.47863 4.38919L8.57404 4.08685L8.33911 3.90543L8.62383 3.91423L8.70438 3.60645L8.78493 3.91423L9.06965 3.90543L8.83472 4.08685L8.93013 4.38919L8.70438 4.19353Z" fill="white"/>
<path fill-rule="evenodd" clip-rule="evenodd" d="M7.16922 4.19353L6.94347 4.38919L7.03889 4.08685L6.80395 3.90543L7.08867 3.91423L7.16922 3.60645L7.24978 3.91423L7.5345 3.90543L7.29956 4.08685L7.39497 4.38919L7.16922 4.19353Z" fill="white"/>
<path fill-rule="evenodd" clip-rule="evenodd" d="M5.63407 4.19353L5.40832 4.38919L5.50373 4.08685L5.2688 3.90543L5.55351 3.91423L5.63407 3.60645L5.71462 3.91423L5.99934 3.90543L5.76441 4.08685L5.85982 4.38919L5.63407 4.19353Z" fill="white"/>
<path fill-rule="evenodd" clip-rule="evenodd" d="M4.09891 4.19353L3.87316 4.38919L3.96857 4.08685L3.73364 3.90543L4.01836 3.91423L4.09891 3.60645L4.17947 3.91423L4.46418 3.90543L4.22925 4.08685L4.32466 4.38919L4.09891 4.19353Z" fill="white"/>
<path fill-rule="evenodd" clip-rule="evenodd" d="M2.56376 4.19353L2.33801 4.38919L2.43342 4.08685L2.19849 3.90543L2.4832 3.91423L2.56376 3.60645L2.64431 3.91423L2.92903 3.90543L2.69409 4.08685L2.78951 4.38919L2.56376 4.19353Z" fill="white"/>
<path fill-rule="evenodd" clip-rule="evenodd" d="M1.02469 4.19353L0.798944 4.38919L0.894354 4.08685L0.659423 3.90543L0.944139 3.91423L1.02469 3.60645L1.10525 3.91423L1.38996 3.90543L1.15503 4.08685L1.25044 4.38919L1.02469 4.19353Z" fill="white"/>
<path fill-rule="evenodd" clip-rule="evenodd" d="M7.93485 3.47186L7.7091 3.66751L7.80451 3.36517L7.56958 3.18375L7.8543 3.19255L7.93485 2.88477L8.0154 3.19255L8.30012 3.18375L8.06519 3.36517L8.1606 3.66751L7.93485 3.47186Z" fill="white"/>
<path fill-rule="evenodd" clip-rule="evenodd" d="M6.39969 3.47186L6.17394 3.66751L6.26935 3.36517L6.03442 3.18375L6.31914 3.19255L6.39969 2.88477L6.48025 3.19255L6.76496 3.18375L6.53003 3.36517L6.62544 3.66751L6.39969 3.47186Z" fill="white"/>
<path fill-rule="evenodd" clip-rule="evenodd" d="M4.86454 3.47186L4.63879 3.66751L4.7342 3.36517L4.49927 3.18375L4.78398 3.19255L4.86454 2.88477L4.94509 3.19255L5.22981 3.18375L4.99488 3.36517L5.09029 3.66751L4.86454 3.47186Z" fill="white"/>
<path fill-rule="evenodd" clip-rule="evenodd" d="M3.32938 3.47186L3.10363 3.66751L3.19904 3.36517L2.96411 3.18375L3.24883 3.19255L3.32938 2.88477L3.40993 3.19255L3.69465 3.18375L3.45972 3.36517L3.55513 3.66751L3.32938 3.47186Z" fill="white"/>
<path fill-rule="evenodd" clip-rule="evenodd" d="M1.79032 3.47186L1.56457 3.66751L1.65998 3.36517L1.42505 3.18375L1.70976 3.19255L1.79032 2.88477L1.87087 3.19255L2.15559 3.18375L1.92066 3.36517L2.01607 3.66751L1.79032 3.47186Z" fill="white"/>
<path fill-rule="evenodd" clip-rule="evenodd" d="M8.70438 2.75018L8.47863 2.94583L8.57404 2.64349L8.33911 2.46207L8.62383 2.47087L8.70438 2.16309L8.78493 2.47087L9.06965 2.46207L8.83472 2.64349L8.93013 2.94583L8.70438 2.75018Z" fill="white"/>
<path fill-rule="evenodd" clip-rule="evenodd" d="M7.16922 2.75018L6.94347 2.94583L7.03889 2.64349L6.80395 2.46207L7.08867 2.47087L7.16922 2.16309L7.24978 2.47087L7.5345 2.46207L7.29956 2.64349L7.39497 2.94583L7.16922 2.75018Z" fill="white"/>
<path fill-rule="evenodd" clip-rule="evenodd" d="M5.63407 2.75018L5.40832 2.94583L5.50373 2.64349L5.2688 2.46207L5.55351 2.47087L5.63407 2.16309L5.71462 2.47087L5.99934 2.46207L5.76441 2.64349L5.85982 2.94583L5.63407 2.75018Z" fill="white"/>
<path fill-rule="evenodd" clip-rule="evenodd" d="M4.09891 2.75018L3.87316 2.94583L3.96857 2.64349L3.73364 2.46207L4.01836 2.47087L4.09891 2.16309L4.17947 2.47087L4.46418 2.46207L4.22925 2.64349L4.32466 2.94583L4.09891 2.75018Z" fill="white"/>
<path fill-rule="evenodd" clip-rule="evenodd" d="M2.56376 2.75018L2.33801 2.94583L2.43342 2.64349L2.19849 2.46207L2.4832 2.47087L2.56376 2.16309L2.64431 2.47087L2.92903 2.46207L2.69409 2.64349L2.78951 2.94583L2.56376 2.75018Z" fill="white"/>
<path fill-rule="evenodd" clip-rule="evenodd" d="M1.02469 2.75018L0.798944 2.94583L0.894354 2.64349L0.659423 2.46207L0.944139 2.47087L1.02469 2.16309L1.10525 2.47087L1.38996 2.46207L1.15503 2.64349L1.25044 2.94583L1.02469 2.75018Z" fill="white"/>
<path fill-rule="evenodd" clip-rule="evenodd" d="M7.93485 2.02947L7.7091 2.22513L7.80451 1.92279L7.56958 1.74137L7.8543 1.75017L7.93485 1.44238L8.0154 1.75017L8.30012 1.74137L8.06519 1.92279L8.1606 2.22513L7.93485 2.02947Z" fill="white"/>
<path fill-rule="evenodd" clip-rule="evenodd" d="M6.39969 2.02947L6.17394 2.22513L6.26935 1.92279L6.03442 1.74137L6.31914 1.75017L6.39969 1.44238L6.48025 1.75017L6.76496 1.74137L6.53003 1.92279L6.62544 2.22513L6.39969 2.02947Z" fill="white"/>
<path fill-rule="evenodd" clip-rule="evenodd" d="M4.86454 2.02947L4.63879 2.22513L4.7342 1.92279L4.49927 1.74137L4.78398 1.75017L4.86454 1.44238L4.94509 1.75017L5.22981 1.74137L4.99488 1.92279L5.09029 2.22513L4.86454 2.02947Z" fill="white"/>
<path fill-rule="evenodd" clip-rule="evenodd" d="M3.32938 2.02947L3.10363 2.22513L3.19904 1.92279L2.96411 1.74137L3.24883 1.75017L3.32938 1.44238L3.40993 1.75017L3.69465 1.74137L3.45972 1.92279L3.55513 2.22513L3.32938 2.02947Z" fill="white"/>
<path fill-rule="evenodd" clip-rule="evenodd" d="M1.79032 2.02947L1.56457 2.22513L1.65998 1.92279L1.42505 1.74137L1.70976 1.75017L1.79032 1.44238L1.87087 1.75017L2.15559 1.74137L1.92066 1.92279L2.01607 2.22513L1.79032 2.02947Z" fill="white"/>
<path fill-rule="evenodd" clip-rule="evenodd" d="M8.70438 1.30779L8.47863 1.50345L8.57404 1.20111L8.33911 1.01969L8.62383 1.02849L8.70438 0.720703L8.78493 1.02849L9.06965 1.01969L8.83472 1.20111L8.93013 1.50345L8.70438 1.30779Z" fill="white"/>
<path fill-rule="evenodd" clip-rule="evenodd" d="M7.16922 1.30779L6.94347 1.50345L7.03889 1.20111L6.80395 1.01969L7.08867 1.02849L7.16922 0.720703L7.24978 1.02849L7.5345 1.01969L7.29956 1.20111L7.39497 1.50345L7.16922 1.30779Z" fill="white"/>
<path fill-rule="evenodd" clip-rule="evenodd" d="M5.63407 1.30779L5.40832 1.50345L5.50373 1.20111L5.2688 1.01969L5.55351 1.02849L5.63407 0.720703L5.71462 1.02849L5.99934 1.01969L5.76441 1.20111L5.85982 1.50345L5.63407 1.30779Z" fill="white"/>
<path fill-rule="evenodd" clip-rule="evenodd" d="M4.09891 1.30779L3.87316 1.50345L3.96857 1.20111L3.73364 1.01969L4.01836 1.02849L4.09891 0.720703L4.17947 1.02849L4.46418 1.01969L4.22925 1.20111L4.32466 1.50345L4.09891 1.30779Z" fill="white"/>
<path fill-rule="evenodd" clip-rule="evenodd" d="M2.56376 1.30779L2.33801 1.50345L2.43342 1.20111L2.19849 1.01969L2.4832 1.02849L2.56376 0.720703L2.64431 1.02849L2.92903 1.01969L2.69409 1.20111L2.78951 1.50345L2.56376 1.30779Z" fill="white"/>
<path fill-rule="evenodd" clip-rule="evenodd" d="M1.02469 1.30779L0.798944 1.50345L0.894354 1.20111L0.659423 1.01969L0.944139 1.02849L1.02469 0.720703L1.10525 1.02849L1.38996 1.01969L1.15503 1.20111L1.25044 1.50345L1.02469 1.30779Z" fill="white"/>
</svg>
